<svg xmlns="http://www.w3.org/2000/svg" xml:space="preserve" viewBox="0 0 50 50">
  <path fill="#103329" d="M36.04 50H13.96A14 14 0 0 1 0 36.04V13.96A14 14 0 0 1 13.96 0h22.09A14 14 0 0 1 50 13.96v22.09A14 14 0 0 1 36.04 50z"/>
  <path fill="#278D74" d="M15.25 28.15V39H11.4V10.81c2.91-.13 4.67-.19 5.27-.19 8.18 0 12.28 2.74 12.28 8.22 0 6.34-3.62 9.51-10.85 9.51-.44-.01-1.39-.08-2.85-.2zm0-13.88v10.41l2.58.19c4.77 0 7.16-1.88 7.16-5.64 0-3.44-2.55-5.16-7.64-5.16-.52.01-1.21.07-2.1.2zM31.5 34.36V15.6h3.66v18.26c0 .89.32 1.59.95 2.11.63.51 1.46.77 2.49.77v2.64c-4.73 0-7.1-1.67-7.1-5.02z"/>
</svg>